<svg width="58" height="58" viewBox="0 0 58 58" fill="none" xmlns="http://www.w3.org/2000/svg">
    <path d="M12.0833 43.5H16.9167H45.9167C48.575 43.5 50.75 45.1312 50.75 47.125C50.75 49.1188 48.575 50.75 45.9167 50.75H16.9167H12.0833C9.425 50.75 7.25 49.1188 7.25 47.125C7.25 45.1312 9.425 43.5 12.0833 43.5Z"
    />
    <path d="M37.8611 33.8333H32.1215H11.0764C8.97187 33.8333 7.25 32.202 7.25 30.2083C7.25 28.2145 8.97187 26.5833 11.0764 26.5833H32.1215H37.8611C39.9656 26.5833 41.6875 28.2145 41.6875 30.2083C41.6875 32.202 39.9656 33.8333 37.8611 33.8333Z"
    />
    <path d="M45.9167 16.9167H31.4167H12.0833C9.425 16.9167 7.25 15.2855 7.25 13.2917C7.25 11.298 9.425 9.66675 12.0833 9.66675H31.4167H45.9167C48.575 9.66675 50.75 11.298 50.75 13.2917C50.75 15.2855 48.575 16.9167 45.9167 16.9167Z"
    />
</svg>
