<svg width="45" height="45" viewBox="0 0 45 45" fill="none" xmlns="http://www.w3.org/2000/svg">
    <rect x="1.5" y="1.5" width="43" height="43" rx="4.5" class="stroke-second"/>
    <path d="M38.5 28.8442C38.5 28.8859 38.4995 28.9273 38.4984 28.9682C38.4469 28.8896 38.3556 28.7776 38.1972 28.6831C38.0306 28.5837 37.8221 28.5225 37.5645 28.5043C37.6091 28.5015 37.6551 28.5 37.7025 28.5C38.2272 28.5 38.4337 28.6479 38.4898 28.6987C38.49 28.6999 38.4903 28.7011 38.4905 28.7024C38.4956 28.7315 38.5 28.777 38.5 28.8442ZM36.4455 28.9897C36.4433 28.9928 36.442 28.9945 36.4419 28.9945C36.4418 28.9946 36.4429 28.993 36.4455 28.9897ZM38.4843 28.6755C38.4843 28.6756 38.4844 28.6758 38.4844 28.6759L38.483 28.6729L38.4843 28.6755Z"
          class="fill-second stroke-second"/>
    <path d="M22.502 32.5334C19.3335 32.5648 16.4002 32.5334 8.3335 28.8667C8.3335 29.5922 12.584 33.945 22.502 34.6705C32.4199 35.3959 37.3789 29.5922 35.962 30.3176C30.3335 33.1996 26.7363 32.4913 22.502 32.5334Z"
          class="fill-second"/>
    <path d="M36.8644 23.75C36.2644 23.75 35.7477 23.6083 35.3144 23.325C34.881 23.0416 34.5477 22.6514 34.3144 22.1541C34.081 21.6569 33.9644 21.0889 33.9644 20.45C33.9644 19.8 34.0838 19.2264 34.3227 18.7291C34.5644 18.2291 34.9005 17.8389 35.331 17.5583C35.7644 17.275 36.2699 17.1333 36.8477 17.1333C37.2977 17.1333 37.7032 17.2166 38.0644 17.3833C38.4255 17.55 38.7213 17.7833 38.9519 18.0833C39.1824 18.3833 39.3255 18.7333 39.381 19.1333H38.3977C38.3227 18.8416 38.156 18.5833 37.8977 18.3583C37.6421 18.1305 37.2977 18.0166 36.8644 18.0166C36.481 18.0166 36.1449 18.1166 35.856 18.3166C35.5699 18.5139 35.3463 18.793 35.1852 19.1541C35.0269 19.5125 34.9477 19.9333 34.9477 20.4166C34.9477 20.9111 35.0255 21.3416 35.181 21.7083C35.3394 22.075 35.5616 22.3597 35.8477 22.5625C36.1366 22.7652 36.4755 22.8666 36.8644 22.8666C37.1199 22.8666 37.3519 22.8222 37.5602 22.7333C37.7685 22.6444 37.9449 22.5166 38.0894 22.35C38.2338 22.1833 38.3366 21.9833 38.3977 21.75H39.381C39.3255 22.1277 39.188 22.468 38.9685 22.7708C38.7519 23.0708 38.4644 23.3097 38.106 23.4875C37.7505 23.6625 37.3366 23.75 36.8644 23.75Z"
          class="fill-second"/>
    <path d="M31.4795 23.6167V17.2167H32.4628V23.6167H31.4795Z" class="fill-second"/>
    <path d="M29.8821 18.65L28.9988 18.9C28.9432 18.7527 28.8613 18.6097 28.7529 18.4708C28.6474 18.3291 28.5029 18.2125 28.3196 18.1208C28.1363 18.0291 27.9015 17.9833 27.6154 17.9833C27.2238 17.9833 26.8974 18.0736 26.6363 18.2541C26.3779 18.4319 26.2488 18.6583 26.2488 18.9333C26.2488 19.1777 26.3377 19.3708 26.5154 19.5125C26.6932 19.6541 26.971 19.7722 27.3488 19.8666L28.2988 20.1C28.871 20.2389 29.2974 20.4514 29.5779 20.7375C29.8585 21.0208 29.9988 21.3861 29.9988 21.8333C29.9988 22.2 29.8932 22.5277 29.6821 22.8166C29.4738 23.1055 29.1821 23.3333 28.8071 23.5C28.4321 23.6666 27.996 23.75 27.4988 23.75C26.846 23.75 26.3057 23.6083 25.8779 23.325C25.4502 23.0416 25.1793 22.6277 25.0654 22.0833L25.9988 21.85C26.0877 22.1944 26.2557 22.4527 26.5029 22.625C26.7529 22.7972 27.0793 22.8833 27.4821 22.8833C27.9404 22.8833 28.3043 22.7861 28.5738 22.5916C28.846 22.3944 28.9821 22.1583 28.9821 21.8833C28.9821 21.6611 28.9043 21.475 28.7488 21.325C28.5932 21.1722 28.3543 21.0583 28.0321 20.9833L26.9654 20.7333C26.3793 20.5944 25.9488 20.3791 25.6738 20.0875C25.4015 19.793 25.2654 19.425 25.2654 18.9833C25.2654 18.6222 25.3668 18.3027 25.5696 18.025C25.7752 17.7472 26.0543 17.5291 26.4071 17.3708C26.7627 17.2125 27.1654 17.1333 27.6154 17.1333C28.2488 17.1333 28.746 17.2722 29.1071 17.55C29.471 17.8277 29.7293 18.1944 29.8821 18.65Z"
          class="fill-second"/>
    <path d="M22.5646 21V17.2167H23.5479V23.6167H22.5646V22.5333H22.4979C22.3479 22.8583 22.1146 23.1347 21.7979 23.3625C21.4812 23.5875 21.0812 23.7 20.5979 23.7C20.1979 23.7 19.8424 23.6125 19.5313 23.4375C19.2201 23.2597 18.9757 22.9931 18.7979 22.6375C18.6201 22.2792 18.5312 21.8278 18.5312 21.2833V17.2167H19.5146V21.2167C19.5146 21.6833 19.6451 22.0556 19.9062 22.3333C20.1701 22.6111 20.5062 22.75 20.9146 22.75C21.159 22.75 21.4076 22.6875 21.6604 22.5625C21.916 22.4375 22.1299 22.2458 22.3021 21.9875C22.4771 21.7292 22.5646 21.4 22.5646 21Z"
          class="fill-second"/>
    <path d="M8.3335 23.6166V17.2166H9.2835V18.2166H9.36683C9.50016 17.875 9.71544 17.6097 10.0127 17.4208C10.3099 17.2291 10.6668 17.1333 11.0835 17.1333C11.5057 17.1333 11.8571 17.2291 12.1377 17.4208C12.421 17.6097 12.6418 17.875 12.8002 18.2166H12.8668C13.0307 17.8861 13.2766 17.6236 13.6043 17.4291C13.9321 17.2319 14.3252 17.1333 14.7835 17.1333C15.3557 17.1333 15.8238 17.3125 16.1877 17.6708C16.5516 18.0264 16.7335 18.5805 16.7335 19.3333V23.6166H15.7502V19.3333C15.7502 18.8611 15.621 18.5236 15.3627 18.3208C15.1043 18.118 14.8002 18.0166 14.4502 18.0166C14.0002 18.0166 13.6516 18.1527 13.4043 18.425C13.1571 18.6944 13.0335 19.0361 13.0335 19.45V23.6166H12.0335V19.2333C12.0335 18.8694 11.9154 18.5764 11.6793 18.3541C11.4432 18.1291 11.1391 18.0166 10.7668 18.0166C10.5113 18.0166 10.2724 18.0847 10.0502 18.2208C9.83072 18.3569 9.65294 18.5458 9.51683 18.7875C9.3835 19.0264 9.31683 19.3027 9.31683 19.6166V23.6166H8.3335Z"
          class="fill-second"/>
</svg>
