<svg width="45" height="45" viewBox="0 0 45 45" fill="none" xmlns="http://www.w3.org/2000/svg">
    <path d="M45 38.8889C45 42.2647 42.2647 45 38.8889 45H7.11111C3.73656 45 1 42.2647 1 38.8889V7.11111C1 3.73533 3.73656 1 7.11111 1H38.8889C42.2647 1 45 3.73533 45 7.11111V38.8889Z"
          class="fill-second"/>
    <path d="M17.6276 10.9559C16.9825 11.0974 16.5263 11.6419 16.5263 12.2699V30.0657C16.5263 30.8097 15.8897 31.4135 15.1053 31.4135H13.6842C10.5451 31.4135 8 33.2235 8 35.4567C8 37.69 10.5451 39.5 13.6842 39.5C16.8233 39.5 18.5158 38.0485 18.5158 35.8152L18.1748 28.3581V24.2973V20.4158C18.1748 19.7877 18.2117 17.9683 18.8569 17.8281L30.8519 16.1488C31.5198 16.0019 33.2592 16.5315 33.2592 17.1812V21.7581V26.071C33.2592 26.8149 31.5213 27.3702 30.7368 27.3702H29.3158C26.1767 27.3702 23.6316 29.1802 23.6316 31.4135C23.6316 33.6467 26.1767 35.4567 29.3158 35.4567C32.4549 35.4567 35 33.6467 35 31.4135V8.84798C35 7.98137 34.1502 7.33984 33.2592 7.53526L17.6276 10.9559Z"
          fill="#1D1A1A"/>
</svg>
