<svg width="45" height="45" viewBox="0 0 45 45" fill="none" xmlns="http://www.w3.org/2000/svg">
<path d="M44.5 38.8889C44.5 41.9885 41.9885 44.5 38.8889 44.5H7.11111C4.01263 44.5 1.5 41.9885 1.5 38.8889V7.11111C1.5 4.01154 4.01263 1.5 7.11111 1.5H38.8889C41.9885 1.5 44.5 4.01148 44.5 7.11111V38.8889Z" stroke="#EAE7E7"/>
<path d="M17.6276 10.4559C16.9825 10.5974 16.5263 11.1419 16.5263 11.7699V29.5657C16.5263 30.3097 15.8897 30.9135 15.1053 30.9135H13.6842C10.5451 30.9135 8 32.7235 8 34.9567C8 37.19 10.5451 39 13.6842 39C16.8233 39 18.5158 37.5485 18.5158 35.3152L18.1748 27.8581V23.7973V19.9158C18.1748 19.2877 18.2117 17.4683 18.8569 17.3281L30.8519 15.6488C31.5198 15.5019 33.2592 16.0315 33.2592 16.6812V21.2581V25.571C33.2592 26.3149 31.5213 26.8702 30.7368 26.8702H29.3158C26.1767 26.8702 23.6316 28.6802 23.6316 30.9135C23.6316 33.1467 26.1767 34.9567 29.3158 34.9567C32.4549 34.9567 35 33.1467 35 30.9135V8.34798C35 7.48137 34.1502 6.83984 33.2592 7.03526L17.6276 10.4559Z" fill="#EAE7E7"/>
</svg>
