<svg width="45" height="45" viewBox="0 0 45 45" fill="none" xmlns="http://www.w3.org/2000/svg">
    <rect x="1.5" y="1.5" width="43" height="43" rx="21.5" class="stroke-second"/>
    <path d="M31.7857 23.14C31.58 23.14 31.3953 23.266 31.3202 23.4575C31.2451 23.6489 31.295 23.8669 31.4458 24.0067L34.892 27.2009C34.8972 27.2095 34.9288 27.2661 34.9027 27.4005C34.8668 27.5848 34.7154 27.9227 34.2077 28.3933L32.8267 29.6733L33.1666 30.04L32.8267 29.6733L31.4458 30.9533C31.4541 30.9455 31.4536 30.9457 31.4439 30.9495C31.3819 30.9733 30.9466 31.1405 30.0541 30.3133L23.8398 24.5533C23.6481 24.3756 23.3518 24.3756 23.1601 24.5533L16.9458 30.3133C16.7749 30.4717 16.4496 30.6726 16.0718 30.7296C15.7192 30.7828 15.2986 30.7164 14.8637 30.3133L12.108 27.7591C12.1028 27.7504 12.0712 27.6939 12.0973 27.5595C12.1331 27.3752 12.2845 27.0373 12.7922 26.5667L15.5542 24.0067C15.705 23.8669 15.7549 23.6489 15.6798 23.4574C15.6047 23.266 15.42 23.14 15.2143 23.14H10.381C10.2726 23.14 10.0581 23.0893 9.8716 22.9026C9.69564 22.7265 9.5 22.3835 9.5 21.72V18.52C9.5 18.3948 9.54493 18.1891 9.67106 18.0267C9.77935 17.8873 9.97611 17.74 10.381 17.74H15.2143C15.42 17.74 15.6047 17.614 15.6798 17.4225C15.7549 17.2311 15.705 17.0131 15.5542 16.8733L12.108 13.6791C12.1028 13.6704 12.0711 13.6139 12.0973 13.4795C12.1331 13.2952 12.2845 12.9573 12.7922 12.4867L12.7922 12.4867L15.5542 9.9267L15.5542 9.92667C15.5458 9.93445 15.5463 9.93425 15.5561 9.9305C15.6181 9.90668 16.0533 9.73952 16.9458 10.5667C16.9458 10.5667 16.9458 10.5667 16.9458 10.5667L19.7077 13.1267C19.8535 13.2618 20.0655 13.2978 20.2476 13.2182C20.4298 13.1387 20.5476 12.9588 20.5476 12.76V9.08696C20.5476 8.72553 20.6116 8.28845 20.7724 7.96168C20.9229 7.65582 21.1219 7.5 21.4286 7.5H25.5714C25.7288 7.5 25.9707 7.5476 26.1569 7.67189C26.3163 7.77825 26.4523 7.94753 26.4523 8.28001L26.4524 12.76C26.4524 12.9588 26.5701 13.1387 26.7523 13.2182C26.9345 13.2978 27.1465 13.2618 27.2923 13.1267L30.7447 9.9267L30.4048 9.56L30.7447 9.9267C30.7363 9.93446 30.7368 9.93426 30.7466 9.93052C30.8086 9.9067 31.2438 9.73947 32.1363 10.5667L34.892 13.1209C34.8971 13.1295 34.9288 13.1861 34.9027 13.3205C34.8668 13.5048 34.7154 13.8427 34.2077 14.3133L31.4458 16.8733C31.2949 17.0131 31.2451 17.2311 31.3202 17.4225C31.3953 17.614 31.58 17.74 31.7857 17.74L36.619 17.74C36.7765 17.74 37.0184 17.7876 37.2046 17.9119C37.364 18.0183 37.5 18.1875 37.5 18.52V21.72C37.5 21.9867 37.4396 22.3816 37.2798 22.6901C37.1297 22.9798 36.9292 23.14 36.619 23.14H31.7857ZM34.8982 13.1267C34.8981 13.1266 34.898 13.1265 34.8978 13.1264L34.8982 13.1267L34.8982 13.1267ZM24.881 38.5H23.5L21.4347 38.5C21.4342 38.4996 21.4337 38.4991 21.4332 38.4986C21.414 38.4803 21.3788 38.433 21.3423 38.339C21.2684 38.1487 21.2381 37.8952 21.2381 37.72V30.68C21.2381 29.9633 21.3479 29.6307 21.4358 29.4697C21.4954 29.3606 21.5393 29.3214 21.6138 29.26L24.881 29.26C25.4284 29.26 25.6657 29.3176 25.7568 29.3645C25.7581 29.3652 25.7593 29.3658 25.7605 29.3664C25.7613 29.3744 25.7619 29.3854 25.7619 29.4V37.72C25.7619 38.0525 25.6259 38.2217 25.4665 38.3281C25.2803 38.4524 25.0384 38.5 24.881 38.5Z"
          class="fill-second stroke-second stroke-linecap"/>
</svg>
