<svg width="80" height="80" viewBox="0 0 80 80" fill="none" xmlns="http://www.w3.org/2000/svg">
    <path d="M40 75C59.33 75 75 59.33 75 40C75 20.67 59.33 5 40 5C20.67 5 5 20.67 5 40C5 59.33 20.67 75 40 75Z"
          class="stroke-main arrow-style"/>
    <path d="M55.75 40C55.75 43.1151 54.8263 46.1602 53.0957 48.7502C51.365 51.3403 48.9052 53.359 46.0273 54.5511C43.1493 55.7432 39.9825 56.0551 36.9273 55.4474C33.8721 54.8397 31.0658 53.3396 28.8631 51.1369C26.6604 48.9343 25.1604 46.1279 24.5526 43.0727C23.9449 40.0175 24.2568 36.8507 25.4489 33.9727C26.641 31.0948 28.6597 28.635 31.2498 26.9044C33.8399 25.1737 36.885 24.25 40 24.25C44.41 24.25 48.6275 26 51.795 29.045L55.75 33M55.75 33V24.25M55.75 33H47"
          class="stroke-main arrow-style"/>
</svg>
