

<svg width="45" height="45" viewBox="0 0 45 45" fill="none" xmlns="http://www.w3.org/2000/svg">
<path d="M22.5 0.5C34.641 0.5 44.5 10.359 44.5 22.5C44.5 34.641 34.641 44.5 22.5 44.5C10.359 44.5 0.5 34.641 0.5 22.5C0.5 10.3585 10.3312 0.5 22.5 0.5Z" class="stroke-second"/>
<path d="M31.4326 32.6C31.0707 33.2127 30.2896 33.3786 29.6864 33.0148C24.905 30.0856 18.9045 29.4283 11.8182 31.0365C11.1388 31.1833 10.4594 30.7685 10.3133 30.0856C10.1673 29.4028 10.58 28.7199 11.2594 28.5732C19.0061 26.7927 25.6543 27.5457 30.9945 30.8451C31.5977 31.2088 31.7945 31.9874 31.4326 32.5936C31.4326 32.5936 31.4326 32.5936 31.4326 32.6Z" class="fill-second"/>
<path d="M33.9092 26.6734C33.4457 27.4328 32.4742 27.6498 31.7249 27.2095C26.2641 23.8399 17.9332 22.8635 11.4755 24.8163C10.6247 25.0588 9.75476 24.5994 9.50712 23.7697C9.26582 22.9146 9.72301 22.0403 10.5739 21.7914C17.9523 19.545 27.1277 20.6235 33.4203 24.4972C34.1505 24.9376 34.3664 25.914 33.9029 26.667L33.9092 26.6734Z" class="fill-second"/>
<path d="M34.1247 20.1712C27.5717 16.2656 16.7644 15.9018 10.5036 17.8036C9.50667 18.1227 8.43992 17.5355 8.12243 16.5336C7.80494 15.5317 8.38912 14.4596 9.38603 14.1405C16.5739 11.9452 28.5178 12.3855 36.0423 16.8718C36.944 17.4079 37.2297 18.5821 36.6963 19.482C36.2137 20.4073 35.02 20.7009 34.1247 20.1648V20.1712Z" class="fill-second"/>
</svg>
