
<svg width="46" height="46" viewBox="0 0 46 46" fill="none" xmlns="http://www.w3.org/2000/svg">
<path d="M23.5 0.5C11.0547 0.5 1 10.5828 1 23C1 35.4172 11.0828 45.5 23.5 45.5C35.9172 45.5 46 35.4172 46 23C46 10.5828 35.9172 0.5 23.5 0.5Z" class="fill-second"/>
<path d="M32.4328 33.1C32.0708 33.7127 31.2898 33.8786 30.6866 33.5148C25.9052 30.5856 19.9047 29.9283 12.8184 31.5365C12.139 31.6833 11.4595 31.2685 11.3135 30.5856C11.1675 29.9028 11.5802 29.2199 12.2596 29.0732C20.0063 27.2927 26.6545 28.0457 31.9946 31.3451C32.5979 31.7088 32.7947 32.4874 32.4328 33.0936C32.4328 33.0936 32.4328 33.0936 32.4328 33.1Z" fill="#1D1A1A"/>
<path d="M34.9096 27.1734C34.4461 27.9328 33.4746 28.1498 32.7253 27.7095C27.2645 24.3399 18.9337 23.3635 12.476 25.3163C11.6251 25.5588 10.7552 25.0994 10.5075 24.2697C10.2663 23.4146 10.7234 22.5403 11.5743 22.2914C18.9527 20.045 28.1281 21.1235 34.4207 24.9972C35.1509 25.4376 35.3668 26.414 34.9033 27.167L34.9096 27.1734Z" fill="#1D1A1A"/>
<path d="M35.1251 20.6712C28.5721 16.7656 17.7649 16.4018 11.504 18.3036C10.5071 18.6227 9.44034 18.0355 9.12286 17.0336C8.80537 16.0317 9.38955 14.9596 10.3865 14.6405C17.5744 12.4452 29.5183 12.8855 37.0427 17.3718C37.9444 17.9079 38.2301 19.0821 37.6967 19.982C37.2142 20.9073 36.0204 21.2009 35.1251 20.6648V20.6712Z" fill="#1D1A1A"/>
</svg>
